<mxfile host="65bd71144e" pages="5">
    <diagram id="awf3vW1adkNEcoZk_ail" name="S01-01 従業員一覧">
        <mxGraphModel dx="1641" dy="1508" grid="1" gridSize="10" guides="1" tooltips="1" connect="1" arrows="1" fold="1" page="1" pageScale="1" pageWidth="827" pageHeight="1169" math="0" shadow="0">
            <root>
                <mxCell id="0"/>
                <mxCell id="1" style="locked=1;" parent="0"/>
                <mxCell id="bFGpQuJEz7CzqrKddXCE-3" value="" style="html=1;shadow=0;dashed=0;shape=mxgraph.bootstrap.rrect;rSize=5;html=1;whiteSpace=wrap;labelBackgroundColor=#FFFFFF;labelBorderColor=none;fontSize=100;align=center;verticalAlign=middle;" parent="1" vertex="1">
                    <mxGeometry x="520" y="440" width="191.75" height="70" as="geometry"/>
                </mxCell>
                <mxCell id="bFGpQuJEz7CzqrKddXCE-4" value="&amp;lt;&amp;lt;" style="html=1;shadow=0;dashed=0;shape=mxgraph.bootstrap.leftButton;rSize=5;perimeter=none;whiteSpace=wrap;resizeHeight=1;fontSize=30;labelBackgroundColor=#FFFFFF;labelBorderColor=none;align=center;verticalAlign=top;" parent="bFGpQuJEz7CzqrKddXCE-3" vertex="1">
                    <mxGeometry width="30" height="50" relative="1" as="geometry"/>
                </mxCell>
                <mxCell id="bFGpQuJEz7CzqrKddXCE-5" value="&lt;font style=&quot;font-size: 30px&quot;&gt;1&lt;/font&gt;" style="html=1;shadow=0;dashed=0;perimeter=none;whiteSpace=wrap;resizeHeight=1;fontSize=14;labelBackgroundColor=#FFFFFF;labelBorderColor=none;align=center;verticalAlign=top;" parent="bFGpQuJEz7CzqrKddXCE-3" vertex="1">
                    <mxGeometry width="30" height="50" relative="1" as="geometry">
                        <mxPoint x="30" as="offset"/>
                    </mxGeometry>
                </mxCell>
                <mxCell id="bFGpQuJEz7CzqrKddXCE-6" value="2" style="html=1;shadow=0;dashed=0;perimeter=none;whiteSpace=wrap;resizeHeight=1;fontSize=30;labelBackgroundColor=#FFFFFF;labelBorderColor=none;align=center;verticalAlign=top;" parent="bFGpQuJEz7CzqrKddXCE-3" vertex="1">
                    <mxGeometry width="30" height="50" relative="1" as="geometry">
                        <mxPoint x="60" as="offset"/>
                    </mxGeometry>
                </mxCell>
                <mxCell id="bFGpQuJEz7CzqrKddXCE-7" value="3" style="html=1;shadow=0;dashed=0;perimeter=none;whiteSpace=wrap;resizeHeight=1;fontSize=30;labelBackgroundColor=#FFFFFF;labelBorderColor=none;align=center;verticalAlign=top;" parent="bFGpQuJEz7CzqrKddXCE-3" vertex="1">
                    <mxGeometry width="30" height="50" relative="1" as="geometry">
                        <mxPoint x="90" as="offset"/>
                    </mxGeometry>
                </mxCell>
                <mxCell id="bFGpQuJEz7CzqrKddXCE-8" value="&amp;gt;&amp;gt;" style="html=1;shadow=0;dashed=0;shape=mxgraph.bootstrap.rightButton;rSize=5;perimeter=none;whiteSpace=wrap;resizeHeight=1;fontSize=30;labelBackgroundColor=#FFFFFF;labelBorderColor=none;align=center;verticalAlign=top;" parent="bFGpQuJEz7CzqrKddXCE-3" vertex="1">
                    <mxGeometry x="1" width="30" height="50" relative="1" as="geometry">
                        <mxPoint x="-30" as="offset"/>
                    </mxGeometry>
                </mxCell>
                <mxCell id="bFGpQuJEz7CzqrKddXCE-9" value="" style="rounded=1;whiteSpace=wrap;html=1;fontSize=53;dashed=1;" parent="bFGpQuJEz7CzqrKddXCE-3" vertex="1">
                    <mxGeometry x="-38.25" y="-20" width="230" height="90" as="geometry"/>
                </mxCell>
                <mxCell id="bFGpQuJEz7CzqrKddXCE-10" value="" style="rounded=1;whiteSpace=wrap;html=1;fontSize=53;dashed=1;" parent="1" vertex="1">
                    <mxGeometry x="520" y="-310" width="290" height="100" as="geometry"/>
                </mxCell>
                <mxCell id="bFGpQuJEz7CzqrKddXCE-11" value="" style="rounded=1;whiteSpace=wrap;html=1;fontSize=53;dashed=1;" parent="1" vertex="1">
                    <mxGeometry x="891.75" y="-180" width="230" height="90" as="geometry"/>
                </mxCell>
                <mxCell id="bFGpQuJEz7CzqrKddXCE-12" value="" style="rounded=1;whiteSpace=wrap;html=1;fontSize=53;dashed=1;" parent="1" vertex="1">
                    <mxGeometry x="750" y="-70" width="230" height="90" as="geometry"/>
                </mxCell>
                <mxCell id="bFGpQuJEz7CzqrKddXCE-13" value="" style="rounded=1;whiteSpace=wrap;html=1;fontSize=53;dashed=1;" parent="1" vertex="1">
                    <mxGeometry x="490" y="-70" width="230" height="90" as="geometry"/>
                </mxCell>
                <mxCell id="bFGpQuJEz7CzqrKddXCE-14" value="" style="rounded=1;whiteSpace=wrap;html=1;fontSize=53;dashed=1;" parent="1" vertex="1">
                    <mxGeometry x="200" y="-70" width="230" height="90" as="geometry"/>
                </mxCell>
                <mxCell id="bFGpQuJEz7CzqrKddXCE-15" value="" style="rounded=1;whiteSpace=wrap;html=1;fontSize=53;dashed=1;" parent="1" vertex="1">
                    <mxGeometry x="221.75" y="-110" width="888.25" height="520" as="geometry"/>
                </mxCell>
                <mxCell id="bFGpQuJEz7CzqrKddXCE-16" value="" style="rounded=1;whiteSpace=wrap;html=1;fontSize=53;dashed=1;" parent="1" vertex="1">
                    <mxGeometry x="221.75" y="-99" width="900" height="518" as="geometry"/>
                </mxCell>
                <mxCell id="bFGpQuJEz7CzqrKddXCE-17" value="&lt;font style=&quot;font-size: 55px;&quot;&gt;従業員一覧&lt;/font&gt;" style="rounded=0;whiteSpace=wrap;html=1;labelBackgroundColor=#FFFFFF;labelBorderColor=none;fontSize=55;fontColor=default;strokeColor=default;align=center;verticalAlign=top;spacingTop=30;fillColor=#FFFFFF;" parent="1" vertex="1">
                    <mxGeometry x="-10" y="-330" width="1340" height="870" as="geometry"/>
                </mxCell>
                <mxCell id="bFGpQuJEz7CzqrKddXCE-18" value="" style="shape=table;startSize=0;container=1;collapsible=0;childLayout=tableLayout;labelBackgroundColor=#FFFFFF;labelBorderColor=#000000;fontSize=40;align=left;verticalAlign=middle;" parent="1" vertex="1">
                    <mxGeometry x="236.75" y="-70" width="860" height="466" as="geometry"/>
                </mxCell>
                <mxCell id="bFGpQuJEz7CzqrKddXCE-19" value="" style="shape=partialRectangle;collapsible=0;dropTarget=0;pointerEvents=0;top=0;left=0;bottom=0;right=0;points=[[0,0.5],[1,0.5]];portConstraint=eastwest;labelBackgroundColor=#FFFFFF;labelBorderColor=#000000;fontSize=40;align=left;verticalAlign=middle;" parent="bFGpQuJEz7CzqrKddXCE-18" vertex="1">
                    <mxGeometry width="860" height="92" as="geometry"/>
                </mxCell>
                <mxCell id="bFGpQuJEz7CzqrKddXCE-20" value="従業員ID" style="shape=partialRectangle;html=1;whiteSpace=wrap;connectable=0;overflow=hidden;top=0;left=0;bottom=0;right=0;pointerEvents=1;labelBackgroundColor=#FFFFFF;labelBorderColor=none;fontSize=40;align=left;verticalAlign=middle;" parent="bFGpQuJEz7CzqrKddXCE-19" vertex="1">
                    <mxGeometry width="287" height="92" as="geometry">
                        <mxRectangle width="287" height="92" as="alternateBounds"/>
                    </mxGeometry>
                </mxCell>
                <mxCell id="bFGpQuJEz7CzqrKddXCE-21" value="従業員各" style="shape=partialRectangle;html=1;whiteSpace=wrap;connectable=0;overflow=hidden;top=0;left=0;bottom=0;right=0;pointerEvents=1;labelBackgroundColor=#FFFFFF;labelBorderColor=none;fontSize=40;align=left;verticalAlign=middle;" parent="bFGpQuJEz7CzqrKddXCE-19" vertex="1">
                    <mxGeometry x="287" width="293" height="92" as="geometry">
                        <mxRectangle width="293" height="92" as="alternateBounds"/>
                    </mxGeometry>
                </mxCell>
                <mxCell id="bFGpQuJEz7CzqrKddXCE-22" value="店舗" style="shape=partialRectangle;html=1;whiteSpace=wrap;connectable=0;overflow=hidden;top=0;left=0;bottom=0;right=0;pointerEvents=1;labelBackgroundColor=#FFFFFF;labelBorderColor=none;fontSize=40;align=left;verticalAlign=middle;" parent="bFGpQuJEz7CzqrKddXCE-19" vertex="1">
                    <mxGeometry x="580" width="280" height="92" as="geometry">
                        <mxRectangle width="280" height="92" as="alternateBounds"/>
                    </mxGeometry>
                </mxCell>
                <mxCell id="bFGpQuJEz7CzqrKddXCE-23" value="" style="shape=partialRectangle;collapsible=0;dropTarget=0;pointerEvents=0;top=0;left=0;bottom=0;right=0;points=[[0,0.5],[1,0.5]];portConstraint=eastwest;labelBackgroundColor=#FFFFFF;labelBorderColor=#000000;fontSize=40;align=left;verticalAlign=middle;" parent="bFGpQuJEz7CzqrKddXCE-18" vertex="1">
                    <mxGeometry y="92" width="860" height="98" as="geometry"/>
                </mxCell>
                <mxCell id="bFGpQuJEz7CzqrKddXCE-24" value="2002110" style="shape=partialRectangle;html=1;whiteSpace=wrap;connectable=0;overflow=hidden;top=0;left=0;bottom=0;right=0;pointerEvents=1;labelBackgroundColor=#FFFFFF;labelBorderColor=none;fontSize=40;align=left;verticalAlign=middle;" parent="bFGpQuJEz7CzqrKddXCE-23" vertex="1">
                    <mxGeometry width="287" height="98" as="geometry">
                        <mxRectangle width="287" height="98" as="alternateBounds"/>
                    </mxGeometry>
                </mxCell>
                <mxCell id="bFGpQuJEz7CzqrKddXCE-25" value="佐藤太郎" style="shape=partialRectangle;html=1;whiteSpace=wrap;connectable=0;overflow=hidden;top=0;left=0;bottom=0;right=0;pointerEvents=1;labelBackgroundColor=#FFFFFF;labelBorderColor=none;fontSize=40;align=left;verticalAlign=middle;" parent="bFGpQuJEz7CzqrKddXCE-23" vertex="1">
                    <mxGeometry x="287" width="293" height="98" as="geometry">
                        <mxRectangle width="293" height="98" as="alternateBounds"/>
                    </mxGeometry>
                </mxCell>
                <mxCell id="bFGpQuJEz7CzqrKddXCE-26" value="A" style="shape=partialRectangle;html=1;whiteSpace=wrap;connectable=0;overflow=hidden;top=0;left=0;bottom=0;right=0;pointerEvents=1;labelBackgroundColor=#FFFFFF;labelBorderColor=none;fontSize=40;align=left;verticalAlign=middle;" parent="bFGpQuJEz7CzqrKddXCE-23" vertex="1">
                    <mxGeometry x="580" width="280" height="98" as="geometry">
                        <mxRectangle width="280" height="98" as="alternateBounds"/>
                    </mxGeometry>
                </mxCell>
                <mxCell id="bFGpQuJEz7CzqrKddXCE-27" value="" style="shape=partialRectangle;collapsible=0;dropTarget=0;pointerEvents=0;top=0;left=0;bottom=0;right=0;points=[[0,0.5],[1,0.5]];portConstraint=eastwest;labelBackgroundColor=#FFFFFF;labelBorderColor=#000000;fontSize=40;align=left;verticalAlign=middle;" parent="bFGpQuJEz7CzqrKddXCE-18" vertex="1">
                    <mxGeometry y="190" width="860" height="92" as="geometry"/>
                </mxCell>
                <mxCell id="bFGpQuJEz7CzqrKddXCE-28" value="2002111" style="shape=partialRectangle;html=1;whiteSpace=wrap;connectable=0;overflow=hidden;top=0;left=0;bottom=0;right=0;pointerEvents=1;labelBackgroundColor=#FFFFFF;labelBorderColor=none;fontSize=40;align=left;verticalAlign=middle;" parent="bFGpQuJEz7CzqrKddXCE-27" vertex="1">
                    <mxGeometry width="287" height="92" as="geometry">
                        <mxRectangle width="287" height="92" as="alternateBounds"/>
                    </mxGeometry>
                </mxCell>
                <mxCell id="bFGpQuJEz7CzqrKddXCE-29" value="大原健司" style="shape=partialRectangle;html=1;whiteSpace=wrap;connectable=0;overflow=hidden;top=0;left=0;bottom=0;right=0;pointerEvents=1;labelBackgroundColor=#FFFFFF;labelBorderColor=none;fontSize=40;align=left;verticalAlign=middle;" parent="bFGpQuJEz7CzqrKddXCE-27" vertex="1">
                    <mxGeometry x="287" width="293" height="92" as="geometry">
                        <mxRectangle width="293" height="92" as="alternateBounds"/>
                    </mxGeometry>
                </mxCell>
                <mxCell id="bFGpQuJEz7CzqrKddXCE-30" value="C" style="shape=partialRectangle;html=1;whiteSpace=wrap;connectable=0;overflow=hidden;top=0;left=0;bottom=0;right=0;pointerEvents=1;labelBackgroundColor=#FFFFFF;labelBorderColor=none;fontSize=40;align=left;verticalAlign=middle;" parent="bFGpQuJEz7CzqrKddXCE-27" vertex="1">
                    <mxGeometry x="580" width="280" height="92" as="geometry">
                        <mxRectangle width="280" height="92" as="alternateBounds"/>
                    </mxGeometry>
                </mxCell>
                <mxCell id="bFGpQuJEz7CzqrKddXCE-31" value="" style="shape=partialRectangle;collapsible=0;dropTarget=0;pointerEvents=0;top=0;left=0;bottom=0;right=0;points=[[0,0.5],[1,0.5]];portConstraint=eastwest;labelBackgroundColor=#FFFFFF;labelBorderColor=#000000;fontSize=40;align=left;verticalAlign=middle;" parent="bFGpQuJEz7CzqrKddXCE-18" vertex="1">
                    <mxGeometry y="282" width="860" height="92" as="geometry"/>
                </mxCell>
                <mxCell id="bFGpQuJEz7CzqrKddXCE-32" value="2002112" style="shape=partialRectangle;html=1;whiteSpace=wrap;connectable=0;overflow=hidden;top=0;left=0;bottom=0;right=0;pointerEvents=1;labelBackgroundColor=#FFFFFF;labelBorderColor=none;fontSize=40;align=left;verticalAlign=middle;" parent="bFGpQuJEz7CzqrKddXCE-31" vertex="1">
                    <mxGeometry width="287" height="92" as="geometry">
                        <mxRectangle width="287" height="92" as="alternateBounds"/>
                    </mxGeometry>
                </mxCell>
                <mxCell id="bFGpQuJEz7CzqrKddXCE-33" value="藤龍" style="shape=partialRectangle;html=1;whiteSpace=wrap;connectable=0;overflow=hidden;top=0;left=0;bottom=0;right=0;pointerEvents=1;labelBackgroundColor=#FFFFFF;labelBorderColor=none;fontSize=40;align=left;verticalAlign=middle;" parent="bFGpQuJEz7CzqrKddXCE-31" vertex="1">
                    <mxGeometry x="287" width="293" height="92" as="geometry">
                        <mxRectangle width="293" height="92" as="alternateBounds"/>
                    </mxGeometry>
                </mxCell>
                <mxCell id="bFGpQuJEz7CzqrKddXCE-34" value="A" style="shape=partialRectangle;html=1;whiteSpace=wrap;connectable=0;overflow=hidden;top=0;left=0;bottom=0;right=0;pointerEvents=1;labelBackgroundColor=#FFFFFF;labelBorderColor=none;fontSize=40;align=left;verticalAlign=middle;" parent="bFGpQuJEz7CzqrKddXCE-31" vertex="1">
                    <mxGeometry x="580" width="280" height="92" as="geometry">
                        <mxRectangle width="280" height="92" as="alternateBounds"/>
                    </mxGeometry>
                </mxCell>
                <mxCell id="bFGpQuJEz7CzqrKddXCE-35" value="" style="shape=partialRectangle;collapsible=0;dropTarget=0;pointerEvents=0;top=0;left=0;bottom=0;right=0;points=[[0,0.5],[1,0.5]];portConstraint=eastwest;labelBackgroundColor=#FFFFFF;labelBorderColor=#000000;fontSize=40;align=left;verticalAlign=middle;" parent="bFGpQuJEz7CzqrKddXCE-18" vertex="1">
                    <mxGeometry y="374" width="860" height="92" as="geometry"/>
                </mxCell>
                <mxCell id="bFGpQuJEz7CzqrKddXCE-36" value="2002113" style="shape=partialRectangle;html=1;whiteSpace=wrap;connectable=0;overflow=hidden;top=0;left=0;bottom=0;right=0;pointerEvents=1;labelBackgroundColor=#FFFFFF;labelBorderColor=none;fontSize=40;align=left;verticalAlign=middle;" parent="bFGpQuJEz7CzqrKddXCE-35" vertex="1">
                    <mxGeometry width="287" height="92" as="geometry">
                        <mxRectangle width="287" height="92" as="alternateBounds"/>
                    </mxGeometry>
                </mxCell>
                <mxCell id="bFGpQuJEz7CzqrKddXCE-37" value="春田和明" style="shape=partialRectangle;html=1;whiteSpace=wrap;connectable=0;overflow=hidden;top=0;left=0;bottom=0;right=0;pointerEvents=1;labelBackgroundColor=#FFFFFF;labelBorderColor=none;fontSize=40;align=left;verticalAlign=middle;" parent="bFGpQuJEz7CzqrKddXCE-35" vertex="1">
                    <mxGeometry x="287" width="293" height="92" as="geometry">
                        <mxRectangle width="293" height="92" as="alternateBounds"/>
                    </mxGeometry>
                </mxCell>
                <mxCell id="bFGpQuJEz7CzqrKddXCE-38" value="B" style="shape=partialRectangle;html=1;whiteSpace=wrap;connectable=0;overflow=hidden;top=0;left=0;bottom=0;right=0;pointerEvents=1;labelBackgroundColor=#FFFFFF;labelBorderColor=none;fontSize=40;align=left;verticalAlign=middle;" parent="bFGpQuJEz7CzqrKddXCE-35" vertex="1">
                    <mxGeometry x="580" width="280" height="92" as="geometry">
                        <mxRectangle width="280" height="92" as="alternateBounds"/>
                    </mxGeometry>
                </mxCell>
                <mxCell id="bFGpQuJEz7CzqrKddXCE-39" value="新規登録" style="rounded=1;align=center;html=1;fontSize=30;sketch=0;labelBackgroundColor=none;labelBorderColor=none;" parent="1" vertex="1">
                    <mxGeometry x="916.75" y="-170" width="180" height="70" as="geometry"/>
                </mxCell>
                <mxCell id="bFGpQuJEz7CzqrKddXCE-40" value="➀" style="rounded=0;whiteSpace=wrap;html=1;fontSize=53;" parent="1" vertex="1">
                    <mxGeometry x="-360" y="-490" width="120" height="120" as="geometry"/>
                </mxCell>
                <mxCell id="bFGpQuJEz7CzqrKddXCE-41" value="" style="endArrow=classic;html=1;rounded=0;fontSize=53;exitX=1;exitY=0.5;exitDx=0;exitDy=0;entryX=0;entryY=0.5;entryDx=0;entryDy=0;strokeWidth=2;" parent="1" source="bFGpQuJEz7CzqrKddXCE-40" target="bFGpQuJEz7CzqrKddXCE-10" edge="1">
                    <mxGeometry width="50" height="50" relative="1" as="geometry">
                        <mxPoint x="-230" y="-300.0000000000002" as="sourcePoint"/>
                        <mxPoint x="560" y="65" as="targetPoint"/>
                    </mxGeometry>
                </mxCell>
                <mxCell id="bFGpQuJEz7CzqrKddXCE-42" value="⑥" style="rounded=0;whiteSpace=wrap;html=1;fontSize=53;" parent="1" vertex="1">
                    <mxGeometry x="-360" y="360" width="120" height="120" as="geometry"/>
                </mxCell>
                <mxCell id="bFGpQuJEz7CzqrKddXCE-43" value="⑤" style="rounded=0;whiteSpace=wrap;html=1;fontSize=53;" parent="1" vertex="1">
                    <mxGeometry x="-360" y="180" width="120" height="120" as="geometry"/>
                </mxCell>
                <mxCell id="bFGpQuJEz7CzqrKddXCE-44" value="④" style="rounded=0;whiteSpace=wrap;html=1;fontSize=53;" parent="1" vertex="1">
                    <mxGeometry x="-360" y="10" width="120" height="120" as="geometry"/>
                </mxCell>
                <mxCell id="bFGpQuJEz7CzqrKddXCE-45" value="③" style="rounded=0;whiteSpace=wrap;html=1;fontSize=53;" parent="1" vertex="1">
                    <mxGeometry x="-360" y="-160" width="120" height="120" as="geometry"/>
                </mxCell>
                <mxCell id="bFGpQuJEz7CzqrKddXCE-46" value="⑦" style="rounded=0;whiteSpace=wrap;html=1;fontSize=53;" parent="1" vertex="1">
                    <mxGeometry x="-360" y="560" width="120" height="120" as="geometry"/>
                </mxCell>
                <mxCell id="bFGpQuJEz7CzqrKddXCE-47" value="" style="endArrow=classic;html=1;rounded=0;fontSize=53;exitX=1;exitY=0.5;exitDx=0;exitDy=0;entryX=0;entryY=0.5;entryDx=0;entryDy=0;strokeWidth=2;" parent="1" source="bFGpQuJEz7CzqrKddXCE-45" target="bFGpQuJEz7CzqrKddXCE-11" edge="1">
                    <mxGeometry width="50" height="50" relative="1" as="geometry">
                        <mxPoint x="-230" y="-290" as="sourcePoint"/>
                        <mxPoint x="530.0000000000005" y="-245" as="targetPoint"/>
                    </mxGeometry>
                </mxCell>
                <mxCell id="bFGpQuJEz7CzqrKddXCE-48" value="" style="endArrow=classic;html=1;rounded=0;fontSize=53;exitX=1;exitY=0.5;exitDx=0;exitDy=0;entryX=0;entryY=0.5;entryDx=0;entryDy=0;strokeWidth=2;" parent="1" source="bFGpQuJEz7CzqrKddXCE-44" target="bFGpQuJEz7CzqrKddXCE-14" edge="1">
                    <mxGeometry width="50" height="50" relative="1" as="geometry">
                        <mxPoint x="-230" y="-90" as="sourcePoint"/>
                        <mxPoint x="901.75" y="-125" as="targetPoint"/>
                    </mxGeometry>
                </mxCell>
                <mxCell id="bFGpQuJEz7CzqrKddXCE-49" value="" style="endArrow=classic;html=1;rounded=0;fontSize=53;exitX=1;exitY=0.5;exitDx=0;exitDy=0;entryX=0;entryY=0.5;entryDx=0;entryDy=0;strokeWidth=2;" parent="1" source="bFGpQuJEz7CzqrKddXCE-42" target="bFGpQuJEz7CzqrKddXCE-12" edge="1">
                    <mxGeometry width="50" height="50" relative="1" as="geometry">
                        <mxPoint x="-230" y="250" as="sourcePoint"/>
                        <mxPoint x="500.00000000000045" y="-15" as="targetPoint"/>
                    </mxGeometry>
                </mxCell>
                <mxCell id="bFGpQuJEz7CzqrKddXCE-50" value="" style="endArrow=classic;html=1;rounded=0;fontSize=53;exitX=1;exitY=0.5;exitDx=0;exitDy=0;entryX=0;entryY=0.5;entryDx=0;entryDy=0;strokeWidth=2;" parent="1" source="bFGpQuJEz7CzqrKddXCE-46" target="bFGpQuJEz7CzqrKddXCE-9" edge="1">
                    <mxGeometry width="50" height="50" relative="1" as="geometry">
                        <mxPoint x="-230" y="430" as="sourcePoint"/>
                        <mxPoint x="760.0000000000005" y="-15" as="targetPoint"/>
                    </mxGeometry>
                </mxCell>
                <mxCell id="bFGpQuJEz7CzqrKddXCE-51" value="②" style="rounded=0;whiteSpace=wrap;html=1;fontSize=53;" parent="1" vertex="1">
                    <mxGeometry x="-360" y="-330" width="120" height="120" as="geometry"/>
                </mxCell>
                <mxCell id="bFGpQuJEz7CzqrKddXCE-52" value="" style="endArrow=classic;html=1;rounded=0;fontSize=53;exitX=1;exitY=0.5;exitDx=0;exitDy=0;entryX=0;entryY=0.5;entryDx=0;entryDy=0;strokeWidth=2;" parent="1" source="bFGpQuJEz7CzqrKddXCE-51" target="bFGpQuJEz7CzqrKddXCE-15" edge="1">
                    <mxGeometry width="50" height="50" relative="1" as="geometry">
                        <mxPoint x="-230" y="-90" as="sourcePoint"/>
                        <mxPoint x="901.75" y="-125" as="targetPoint"/>
                    </mxGeometry>
                </mxCell>
                <mxCell id="bFGpQuJEz7CzqrKddXCE-53" value="" style="endArrow=classic;html=1;rounded=0;fontSize=53;exitX=1;exitY=0.5;exitDx=0;exitDy=0;strokeWidth=2;entryX=0;entryY=0.5;entryDx=0;entryDy=0;" parent="1" source="bFGpQuJEz7CzqrKddXCE-43" target="bFGpQuJEz7CzqrKddXCE-13" edge="1">
                    <mxGeometry width="50" height="50" relative="1" as="geometry">
                        <mxPoint x="-230" y="80" as="sourcePoint"/>
                        <mxPoint x="210" y="-15" as="targetPoint"/>
                    </mxGeometry>
                </mxCell>
                <mxCell id="bFGpQuJEz7CzqrKddXCE-54" value="" style="shape=image;verticalLabelPosition=bottom;labelBackgroundColor=#ffffff;verticalAlign=top;aspect=fixed;imageAspect=0;image=data:image/png,iVBORw0KGgoAAAANSUhEUgAAAIIAAAAlCAYAAACOGjGrAAAJR0lEQVR4Ae2bZagVbRDHrwFioBgfxAAFFQNEPwiKBdYXERMDRVFEsUFFxW7EQOxWFAxUsDExsQu7u7s75uU3MNd9lz1nd48Xz7nnnoV1z90npv7PzDzzrGlfvnyR1J3SQVoKBCkQgIEUEFIeUSNCCggpIKSAkAqLf8JiKI/w7ds3sev79+9/lWR+/frVppIgc9H/x48f6WOcP37//h2IF+b4+fOnDv3161egMf8KLPCGHFxB9UFf5GDs3/IZCgjv37+XCxcuyN69e+X58+cxE4fxd+/eydGjR+XEiRPy+PFj+fTpU0SBACDKefLkiaxfv15mzZolU6ZMkWnTpunfly9fVgPTL5JCaIPmnTt35ODBg8KYSH3j8f7t27dy8eJF2b17t8oZjQfT35kzZ+TevXvpwI4mf7T5aAsEBEPorVu3ZNKkSdKmTRsFBBOERSP9me/p06cyYMAAGTZsmBw7dkwAmdFxM42A9N+0aZPUrl1b8ufPL2lpaZIzZ06pWbOmAgNgfv78OSI/eBMAt23bNunatassWrQoIYBg+nvw4IHMnTtXWrZsKcePH1ferM2pD96hj0ePHsm4ceNk6dKlcvfuXXnz5k1U+Z1zeP32BYK5UmC3YcMG6dSpkzRv3lyBAFNezHoRsnf0NyAMGjRIRo4cqYJ7AYG+GBcjs/obNWqkytq3b5+cP39eTp8+LVOnTpWePXvKmDFj5ObNm+oZjJbzCRDwKNu3b5fu3bvLkiVLEgoIDx8+lPnz50vr1q3l5MmTUYGA/gACuqtWrZpUqVJF9cMcsYaLiEAAdRgC98Pq6dWrl9SoUUMqVaqkzOLGaOd2KtzvN/0NCEOGDJHRo0drePACAv0IGUeOHJEePXpIvXr15NSpUyqs/YPShg8fLk2bNpUDBw7Ix48fPXkyIOzYsUPnWrZsWSi+/eSKtd30hxEXLFgg7dq1CwWEEiVKqHesWrWqdO7cWcFE2LN8Kmi4iAgEjMAkW7Zskfbt20uhQoXUJZcqVUqZ/VdAwLC7du3SkERYYlUjpCnwxYsXsnjxYqlfv75s3LhR+NtL+GQEwqhRo6RixYoKBEIld+HChTVkkH+hCzyqLepoYI0IBBtEgvXy5Uu5f/++rriBAwdKs2bNMiQ0+HkE4wFv8fr1a70RjPcGhGfPnsnChQulYcOGmkNkNSBUqFDhf0AADHnz5pVy5cpp6CAvYhEQ4k2fXk9fIJiLwRWTLBKLccPEaIxhBvGa3Osd/YOGBhtPf7ZJbK+MHu8Q7vr16zJx4kSpW7euZtwfPnzIUh7BCYRs2bL9DxSlS5dW7z179mzVEzZEh14e0xcIGIOBxGqMb/H4XwLBAGFP+AEIeCsy7Q4dOki3bt3k3Llz+t7AYv15JmtocALBwoP7WblyZRkxYoQcOnRIPTvh1g2GTAkEjMq+G8HKly+vWfPhw4f1HW1OANjvrAwE8xTFihUTvAO1FHcRLlMBgZVOOCBPYCvLamjQoIFmygCDdi9vkFU9ggHA6SHYXSxfvlzzPvRi+so0QMCVcZMDrFq1SmsZZcuW1WISOwlyCLe7M2+QVYFgAChSpIhu/dmaUkPZvHmz7igyJRDICdg5UCuoVauW4OZWrlypFUeSIKfRvX5ntdBg3qBgwYLStm1b2blzp5ZeCAnowjyB6SpTeATCAVtIqoIlS5bU7SvlZraOCBTNE5igWQEIZnw8AeV3tvnUga5evar5E3pED1768gUCA+26ffu2FitatWqlCYe9Z7Wawv2eGI7+nB341REMtWS5gKBPnz7SokULLRwZbefT6yQOWqwC2gghYSuLjONyryKUybxcbvlNZ7TTz2ofXroxGWOpLFJQcu8aAACleHSLF4A2F3J40bd3vkB49eqVbjk4ddy6dWt6qZfDG5DG6RfbuGjCGjGeYYCAEtm2QofzhDJlyughy9mzZ+XGjRty6dIlvalyUlblTIL+Tnp4EjwH7wBfGCAgE2PJstEDc5vhyFWYjzYSVaNJO305C6CYA30bY32cT2uLFQgUjvAA+fLlkwIFCmhhDTuxeLi8Vr+Tvv2OCARQzk3ZFg+QK1cudTeWgIC8okWLasGC8wgEdq8MI+J8Ijj9gngEXBkK54StevXqKnCOHDkkd+7ckidPnvQ7e/bsQiyk1IzymR86KAPepk+frgUVTuiCAMGMA222W3ghlGtJKfIATo7Ccb+cFppc8IzOBg8eLGPHjtV+GMSpA+dvoxULEDh0Kl68uOqFcwaOsMmjWJjQCAoC+kYEAgxys+rWrFmjIWHChAnp3wHY77Vr1wpHqCjdhHIK6v5Nn6BAMI+AMVevXq20OW+A9vjx49NvDq54zwEUxmYcN4aD9yZNmujBFYYNAgTjGQ9AzR7aV65c0bkN7ACZOgY7GLwiY0w2dIZb5rsN+hEqbE7303QWFgj0p7jXu3dvmTFjhlBHQT4uwGjzuulF+jsiEGwAk/pdphwbE+1pygriEWwei9N+fBCTmd9oYJDJkyfrNwt8jIJhwwAB+pYHuJUL0Oxyy+/UGf2ihU0zWBggMIYwSD0AANgF4KLRMn16PX2B4DXob96ZkcIAISw9aGCM/fv366rp2LGjhgjCV1gghKUdtn9YIDjnB9ixGt45D7/jBgTcdr9+/TSW4n6D5hhuAbz+ZhXiRdatW6euc+jQoRqrCRtsp/i4ho9AzAhec/yrd8YD4XXmzJkaxvhiC/rW5sULbXgAtzfy6hvk3T8HAkxhKDLrFStWaPy9du2a5hi8D8K0Xx/m4Zo3b55+S8HBFHGcGMqHLYBgz549GULLjxe/djM2rh5vxZdYnKgyztr85siI9rgAwRgHzdwZLbABgay9cePGWlIlFBEuaGMlZRToTJaMeBpvGa2PILwlJRAAFxcZNZ/XUXew0IOSaU8B4c//aQAocQVCEKTG0gcjs/r5ToHTNvIRvEA8Vlos/MdjTNIBwYzNJ2sUwvAIZNZc8VBwZqGZdEDA7RMGKELx0S1gYJtFPSCzGCUefCYdEAgJlFk5nezSpYv07dtXgeB36BIP5ScSzaQDAgZnKzZnzhz9CIPSMx4BgCSS4hONl6QDArkAJ38cw3JsTa2CHIFkMdGUn0j8JCUQKB6RH/Tv319P5AACuUMiKT7ReElKIPD/L+rUqaNegYMngJCIdYNEAsN/qpyiMTVscqAAAAAASUVORK5CYII=;" parent="1" vertex="1">
                    <mxGeometry x="500" y="440" width="190" height="54.08" as="geometry"/>
                </mxCell>
                <mxCell id="bFGpQuJEz7CzqrKddXCE-1" value="名称未設定レイヤ" parent="0"/>
                <mxCell id="bFGpQuJEz7CzqrKddXCE-2" value="名称未設定レイヤ" parent="0"/>
            </root>
        </mxGraphModel>
    </diagram>
    <diagram id="ZipYO3x2CSQ8b-4YCx3I" name="S01-02 従業員新規登録">
        <mxGraphModel dx="2401" dy="1606" grid="1" gridSize="10" guides="1" tooltips="1" connect="1" arrows="1" fold="1" page="1" pageScale="1" pageWidth="827" pageHeight="1169" math="0" shadow="0">
            <root>
                <mxCell id="iQXZzTeZplkwyJJvV2N7-0"/>
                <mxCell id="iQXZzTeZplkwyJJvV2N7-1" parent="iQXZzTeZplkwyJJvV2N7-0"/>
                <mxCell id="Qg0whrGEm0efhjvUUm9--2" value="&lt;font style=&quot;font-size: 51px;&quot;&gt;&lt;span style=&quot;font-size: 51px;&quot;&gt;新規登録&lt;/span&gt;&lt;/font&gt;" style="rounded=0;whiteSpace=wrap;html=1;fontColor=default;fillColor=default;strokeColor=default;verticalAlign=top;spacingTop=21;fontSize=51;fontStyle=0" vertex="1" parent="iQXZzTeZplkwyJJvV2N7-1">
                    <mxGeometry x="-580" y="-20" width="1590" height="1380" as="geometry"/>
                </mxCell>
                <mxCell id="Qg0whrGEm0efhjvUUm9--3" value="" style="rounded=1;whiteSpace=wrap;html=1;fontSize=53;dashed=1;fillColor=none;" vertex="1" parent="iQXZzTeZplkwyJJvV2N7-1">
                    <mxGeometry x="80" y="-10" width="260" height="110" as="geometry"/>
                </mxCell>
                <mxCell id="Qg0whrGEm0efhjvUUm9--4" value="" style="shape=table;startSize=0;container=1;collapsible=0;childLayout=tableLayout;fontColor=default;strokeColor=default;fillColor=default;verticalAlign=top;spacing=0;horizontal=1;" vertex="1" parent="iQXZzTeZplkwyJJvV2N7-1">
                    <mxGeometry x="-420" y="110" width="1260" height="1020" as="geometry"/>
                </mxCell>
                <mxCell id="Qg0whrGEm0efhjvUUm9--5" value="" style="shape=partialRectangle;collapsible=0;dropTarget=0;pointerEvents=0;fillColor=none;top=0;left=0;bottom=0;right=0;points=[[0,0.5],[1,0.5]];portConstraint=eastwest;fontColor=default;strokeColor=default;verticalAlign=top;" vertex="1" parent="Qg0whrGEm0efhjvUUm9--4">
                    <mxGeometry width="1260" height="128" as="geometry"/>
                </mxCell>
                <mxCell id="Qg0whrGEm0efhjvUUm9--6" value="&lt;font style=&quot;font-size: 40px;&quot;&gt;従業員ID&lt;span style=&quot;white-space: pre; font-size: 40px;&quot;&gt;&#9;&lt;/span&gt;&lt;/font&gt;" style="shape=partialRectangle;html=1;whiteSpace=wrap;connectable=0;overflow=hidden;fillColor=none;top=0;left=0;bottom=0;right=0;pointerEvents=1;fontColor=default;strokeColor=default;verticalAlign=middle;align=left;spacingTop=2;spacingBottom=2;fontSize=40;" vertex="1" parent="Qg0whrGEm0efhjvUUm9--5">
                    <mxGeometry width="340" height="128" as="geometry">
                        <mxRectangle width="340" height="128" as="alternateBounds"/>
                    </mxGeometry>
                </mxCell>
                <mxCell id="Qg0whrGEm0efhjvUUm9--7" value="" style="shape=partialRectangle;html=1;whiteSpace=wrap;connectable=0;overflow=hidden;fillColor=none;top=0;left=0;bottom=0;right=0;pointerEvents=1;fontColor=default;strokeColor=default;verticalAlign=middle;spacingTop=2;spacingBottom=2;" vertex="1" parent="Qg0whrGEm0efhjvUUm9--5">
                    <mxGeometry x="340" width="920" height="128" as="geometry">
                        <mxRectangle width="920" height="128" as="alternateBounds"/>
                    </mxGeometry>
                </mxCell>
                <mxCell id="Qg0whrGEm0efhjvUUm9--8" value="" style="shape=partialRectangle;collapsible=0;dropTarget=0;pointerEvents=0;fillColor=none;top=0;left=0;bottom=0;right=0;points=[[0,0.5],[1,0.5]];portConstraint=eastwest;fontColor=default;strokeColor=default;verticalAlign=top;" vertex="1" parent="Qg0whrGEm0efhjvUUm9--4">
                    <mxGeometry y="128" width="1260" height="127" as="geometry"/>
                </mxCell>
                <mxCell id="Qg0whrGEm0efhjvUUm9--9" value="&lt;font style=&quot;font-size: 40px;&quot;&gt;従業員名&lt;/font&gt;" style="shape=partialRectangle;html=1;whiteSpace=wrap;connectable=0;overflow=hidden;fillColor=none;top=0;left=0;bottom=0;right=0;pointerEvents=1;fontColor=default;strokeColor=default;verticalAlign=middle;align=left;spacingTop=2;spacingBottom=2;fontSize=40;" vertex="1" parent="Qg0whrGEm0efhjvUUm9--8">
                    <mxGeometry width="340" height="127" as="geometry">
                        <mxRectangle width="340" height="127" as="alternateBounds"/>
                    </mxGeometry>
                </mxCell>
                <mxCell id="Qg0whrGEm0efhjvUUm9--10" value="&lt;span style=&quot;font-size: 35px&quot;&gt;&amp;nbsp;姓:　　　　　　　　　　名:&lt;/span&gt;" style="shape=partialRectangle;html=1;whiteSpace=wrap;connectable=0;overflow=hidden;fillColor=none;top=0;left=0;bottom=0;right=0;pointerEvents=1;fontColor=default;strokeColor=default;verticalAlign=middle;align=left;spacingTop=2;spacingBottom=2;fontSize=35;" vertex="1" parent="Qg0whrGEm0efhjvUUm9--8">
                    <mxGeometry x="340" width="920" height="127" as="geometry">
                        <mxRectangle width="920" height="127" as="alternateBounds"/>
                    </mxGeometry>
                </mxCell>
                <mxCell id="Qg0whrGEm0efhjvUUm9--11" value="" style="shape=partialRectangle;collapsible=0;dropTarget=0;pointerEvents=0;fillColor=none;top=0;left=0;bottom=0;right=0;points=[[0,0.5],[1,0.5]];portConstraint=eastwest;fontColor=default;strokeColor=default;verticalAlign=top;" vertex="1" parent="Qg0whrGEm0efhjvUUm9--4">
                    <mxGeometry y="255" width="1260" height="128" as="geometry"/>
                </mxCell>
                <mxCell id="Qg0whrGEm0efhjvUUm9--12" value="&lt;font style=&quot;font-size: 40px;&quot;&gt;従業員名（カナ）&lt;/font&gt;" style="shape=partialRectangle;html=1;whiteSpace=wrap;connectable=0;overflow=hidden;fillColor=none;top=0;left=0;bottom=0;right=0;pointerEvents=1;fontColor=default;strokeColor=default;verticalAlign=middle;align=left;spacingTop=2;spacingBottom=2;fontSize=40;" vertex="1" parent="Qg0whrGEm0efhjvUUm9--11">
                    <mxGeometry width="340" height="128" as="geometry">
                        <mxRectangle width="340" height="128" as="alternateBounds"/>
                    </mxGeometry>
                </mxCell>
                <mxCell id="Qg0whrGEm0efhjvUUm9--13" value="セイ:　　　　　　　　　メイ:" style="shape=partialRectangle;html=1;whiteSpace=wrap;connectable=0;overflow=hidden;fillColor=none;top=0;left=0;bottom=0;right=0;pointerEvents=1;fontColor=default;strokeColor=default;verticalAlign=middle;align=left;spacingTop=2;spacingBottom=2;fontSize=35;" vertex="1" parent="Qg0whrGEm0efhjvUUm9--11">
                    <mxGeometry x="340" width="920" height="128" as="geometry">
                        <mxRectangle width="920" height="128" as="alternateBounds"/>
                    </mxGeometry>
                </mxCell>
                <mxCell id="Qg0whrGEm0efhjvUUm9--14" value="" style="shape=partialRectangle;collapsible=0;dropTarget=0;pointerEvents=0;fillColor=none;top=0;left=0;bottom=0;right=0;points=[[0,0.5],[1,0.5]];portConstraint=eastwest;fontColor=default;strokeColor=default;verticalAlign=top;" vertex="1" parent="Qg0whrGEm0efhjvUUm9--4">
                    <mxGeometry y="383" width="1260" height="127" as="geometry"/>
                </mxCell>
                <mxCell id="Qg0whrGEm0efhjvUUm9--15" value="&lt;font style=&quot;font-size: 40px;&quot;&gt;電話番号&lt;/font&gt;" style="shape=partialRectangle;html=1;whiteSpace=wrap;connectable=0;overflow=hidden;fillColor=none;top=0;left=0;bottom=0;right=0;pointerEvents=1;fontColor=default;strokeColor=default;verticalAlign=middle;align=left;spacingTop=2;spacingBottom=2;fontSize=40;" vertex="1" parent="Qg0whrGEm0efhjvUUm9--14">
                    <mxGeometry width="340" height="127" as="geometry">
                        <mxRectangle width="340" height="127" as="alternateBounds"/>
                    </mxGeometry>
                </mxCell>
                <mxCell id="Qg0whrGEm0efhjvUUm9--16" value="" style="shape=partialRectangle;html=1;whiteSpace=wrap;connectable=0;overflow=hidden;fillColor=none;top=0;left=0;bottom=0;right=0;pointerEvents=1;fontColor=default;strokeColor=default;verticalAlign=middle;spacingTop=2;spacingBottom=2;" vertex="1" parent="Qg0whrGEm0efhjvUUm9--14">
                    <mxGeometry x="340" width="920" height="127" as="geometry">
                        <mxRectangle width="920" height="127" as="alternateBounds"/>
                    </mxGeometry>
                </mxCell>
                <mxCell id="Qg0whrGEm0efhjvUUm9--17" value="" style="shape=partialRectangle;collapsible=0;dropTarget=0;pointerEvents=0;fillColor=none;top=0;left=0;bottom=0;right=0;points=[[0,0.5],[1,0.5]];portConstraint=eastwest;fontColor=default;strokeColor=default;verticalAlign=top;" vertex="1" parent="Qg0whrGEm0efhjvUUm9--4">
                    <mxGeometry y="510" width="1260" height="128" as="geometry"/>
                </mxCell>
                <mxCell id="Qg0whrGEm0efhjvUUm9--18" value="性別" style="shape=partialRectangle;html=1;whiteSpace=wrap;connectable=0;overflow=hidden;fillColor=none;top=0;left=0;bottom=0;right=0;pointerEvents=1;fontColor=default;strokeColor=default;verticalAlign=middle;fontSize=40;align=left;spacingTop=2;spacingBottom=2;" vertex="1" parent="Qg0whrGEm0efhjvUUm9--17">
                    <mxGeometry width="340" height="128" as="geometry">
                        <mxRectangle width="340" height="128" as="alternateBounds"/>
                    </mxGeometry>
                </mxCell>
                <mxCell id="Qg0whrGEm0efhjvUUm9--19" value="" style="shape=partialRectangle;html=1;whiteSpace=wrap;connectable=0;overflow=hidden;fillColor=none;top=0;left=0;bottom=0;right=0;pointerEvents=1;fontColor=default;strokeColor=default;verticalAlign=middle;spacingTop=2;spacingBottom=2;" vertex="1" parent="Qg0whrGEm0efhjvUUm9--17">
                    <mxGeometry x="340" width="920" height="128" as="geometry">
                        <mxRectangle width="920" height="128" as="alternateBounds"/>
                    </mxGeometry>
                </mxCell>
                <mxCell id="Qg0whrGEm0efhjvUUm9--20" value="" style="shape=partialRectangle;collapsible=0;dropTarget=0;pointerEvents=0;fillColor=none;top=0;left=0;bottom=0;right=0;points=[[0,0.5],[1,0.5]];portConstraint=eastwest;fontColor=default;strokeColor=default;verticalAlign=top;" vertex="1" parent="Qg0whrGEm0efhjvUUm9--4">
                    <mxGeometry y="638" width="1260" height="127" as="geometry"/>
                </mxCell>
                <mxCell id="Qg0whrGEm0efhjvUUm9--21" value="生年月日" style="shape=partialRectangle;html=1;whiteSpace=wrap;connectable=0;overflow=hidden;fillColor=none;top=0;left=0;bottom=0;right=0;pointerEvents=1;fontColor=default;strokeColor=default;verticalAlign=middle;fontSize=40;align=left;spacingTop=2;spacingBottom=2;" vertex="1" parent="Qg0whrGEm0efhjvUUm9--20">
                    <mxGeometry width="340" height="127" as="geometry">
                        <mxRectangle width="340" height="127" as="alternateBounds"/>
                    </mxGeometry>
                </mxCell>
                <mxCell id="Qg0whrGEm0efhjvUUm9--22" value="" style="shape=partialRectangle;html=1;whiteSpace=wrap;connectable=0;overflow=hidden;fillColor=none;top=0;left=0;bottom=0;right=0;pointerEvents=1;fontColor=default;strokeColor=default;verticalAlign=middle;spacingTop=2;spacingBottom=2;" vertex="1" parent="Qg0whrGEm0efhjvUUm9--20">
                    <mxGeometry x="340" width="920" height="127" as="geometry">
                        <mxRectangle width="920" height="127" as="alternateBounds"/>
                    </mxGeometry>
                </mxCell>
                <mxCell id="Qg0whrGEm0efhjvUUm9--23" value="" style="shape=partialRectangle;collapsible=0;dropTarget=0;pointerEvents=0;fillColor=none;top=0;left=0;bottom=0;right=0;points=[[0,0.5],[1,0.5]];portConstraint=eastwest;fontColor=default;strokeColor=default;verticalAlign=top;" vertex="1" parent="Qg0whrGEm0efhjvUUm9--4">
                    <mxGeometry y="765" width="1260" height="128" as="geometry"/>
                </mxCell>
                <mxCell id="Qg0whrGEm0efhjvUUm9--24" value="所属店舗" style="shape=partialRectangle;html=1;whiteSpace=wrap;connectable=0;overflow=hidden;fillColor=none;top=0;left=0;bottom=0;right=0;pointerEvents=1;fontColor=default;strokeColor=default;verticalAlign=middle;fontSize=40;align=left;spacingTop=2;spacingBottom=2;" vertex="1" parent="Qg0whrGEm0efhjvUUm9--23">
                    <mxGeometry width="340" height="128" as="geometry">
                        <mxRectangle width="340" height="128" as="alternateBounds"/>
                    </mxGeometry>
                </mxCell>
                <mxCell id="Qg0whrGEm0efhjvUUm9--25" value="" style="shape=partialRectangle;html=1;whiteSpace=wrap;connectable=0;overflow=hidden;fillColor=none;top=0;left=0;bottom=0;right=0;pointerEvents=1;fontColor=default;strokeColor=default;verticalAlign=middle;spacingTop=2;spacingBottom=2;" vertex="1" parent="Qg0whrGEm0efhjvUUm9--23">
                    <mxGeometry x="340" width="920" height="128" as="geometry">
                        <mxRectangle width="920" height="128" as="alternateBounds"/>
                    </mxGeometry>
                </mxCell>
                <mxCell id="Qg0whrGEm0efhjvUUm9--26" value="" style="shape=partialRectangle;collapsible=0;dropTarget=0;pointerEvents=0;fillColor=none;top=0;left=0;bottom=0;right=0;points=[[0,0.5],[1,0.5]];portConstraint=eastwest;fontColor=default;strokeColor=default;verticalAlign=top;" vertex="1" parent="Qg0whrGEm0efhjvUUm9--4">
                    <mxGeometry y="893" width="1260" height="127" as="geometry"/>
                </mxCell>
                <mxCell id="Qg0whrGEm0efhjvUUm9--27" value="&lt;font style=&quot;font-size: 40px;&quot;&gt;雇用形態&lt;/font&gt;" style="shape=partialRectangle;html=1;whiteSpace=wrap;connectable=0;overflow=hidden;fillColor=none;top=0;left=0;bottom=0;right=0;pointerEvents=1;fontColor=default;strokeColor=default;verticalAlign=middle;align=left;spacingTop=2;spacingBottom=2;fontSize=40;" vertex="1" parent="Qg0whrGEm0efhjvUUm9--26">
                    <mxGeometry width="340" height="127" as="geometry">
                        <mxRectangle width="340" height="127" as="alternateBounds"/>
                    </mxGeometry>
                </mxCell>
                <mxCell id="Qg0whrGEm0efhjvUUm9--28" value="" style="shape=partialRectangle;html=1;whiteSpace=wrap;connectable=0;overflow=hidden;fillColor=none;top=0;left=0;bottom=0;right=0;pointerEvents=1;fontColor=default;strokeColor=default;verticalAlign=middle;spacingTop=2;spacingBottom=2;" vertex="1" parent="Qg0whrGEm0efhjvUUm9--26">
                    <mxGeometry x="340" width="920" height="127" as="geometry">
                        <mxRectangle width="920" height="127" as="alternateBounds"/>
                    </mxGeometry>
                </mxCell>
                <mxCell id="Qg0whrGEm0efhjvUUm9--29" value="&lt;div style=&quot;font-size: 50px;&quot;&gt;&lt;font style=&quot;font-size: 50px;&quot;&gt;&lt;b style=&quot;font-size: 50px;&quot;&gt;登録&lt;/b&gt;&lt;/font&gt;&lt;/div&gt;" style="rounded=1;whiteSpace=wrap;html=1;fontSize=50;strokeColor=none;fillColor=#007FFF;align=center;verticalAlign=top;spacing=0;spacingBottom=10;fontColor=#FFFFFF;" vertex="1" parent="iQXZzTeZplkwyJJvV2N7-1">
                    <mxGeometry x="130" y="1190" width="210" height="80" as="geometry"/>
                </mxCell>
                <mxCell id="Qg0whrGEm0efhjvUUm9--30" value="" style="rounded=0;whiteSpace=wrap;html=1;labelBackgroundColor=#FFFFFF;fontSize=35;fontColor=default;strokeColor=default;fillColor=default;align=left;verticalAlign=middle;" vertex="1" parent="iQXZzTeZplkwyJJvV2N7-1">
                    <mxGeometry y="277" width="280" height="70" as="geometry"/>
                </mxCell>
                <mxCell id="Qg0whrGEm0efhjvUUm9--31" value="" style="rounded=0;whiteSpace=wrap;html=1;labelBackgroundColor=#FFFFFF;fontSize=35;fontColor=default;strokeColor=default;fillColor=default;align=left;verticalAlign=middle;" vertex="1" parent="iQXZzTeZplkwyJJvV2N7-1">
                    <mxGeometry y="406" width="280" height="70" as="geometry"/>
                </mxCell>
                <mxCell id="Qg0whrGEm0efhjvUUm9--32" value="" style="rounded=0;whiteSpace=wrap;html=1;labelBackgroundColor=#FFFFFF;fontSize=35;fontColor=default;strokeColor=default;fillColor=default;align=left;verticalAlign=middle;" vertex="1" parent="iQXZzTeZplkwyJJvV2N7-1">
                    <mxGeometry x="400" y="277" width="280" height="70" as="geometry"/>
                </mxCell>
                <mxCell id="Qg0whrGEm0efhjvUUm9--33" value="" style="rounded=0;whiteSpace=wrap;html=1;labelBackgroundColor=#FFFFFF;fontSize=35;fontColor=default;strokeColor=default;fillColor=default;align=left;verticalAlign=middle;" vertex="1" parent="iQXZzTeZplkwyJJvV2N7-1">
                    <mxGeometry x="400" y="406" width="280" height="70" as="geometry"/>
                </mxCell>
                <mxCell id="Qg0whrGEm0efhjvUUm9--34" value="" style="rounded=0;whiteSpace=wrap;html=1;labelBackgroundColor=#FFFFFF;fontSize=35;fontColor=default;strokeColor=default;fillColor=default;align=left;verticalAlign=middle;" vertex="1" parent="iQXZzTeZplkwyJJvV2N7-1">
                    <mxGeometry y="530" width="750" height="70" as="geometry"/>
                </mxCell>
                <mxCell id="Qg0whrGEm0efhjvUUm9--35" value="&lt;span style=&quot;font-size: 40px&quot;&gt;男性&lt;/span&gt;" style="shape=ellipse;fillColor=#eeeeee;strokeColor=#999999;gradientColor=#cccccc;html=1;align=left;spacingLeft=4;fontSize=17;fontColor=#666666;labelPosition=right;shadow=0;labelBackgroundColor=#FFFFFF;" vertex="1" parent="iQXZzTeZplkwyJJvV2N7-1">
                    <mxGeometry x="110" y="670" width="50" height="50" as="geometry"/>
                </mxCell>
                <mxCell id="Qg0whrGEm0efhjvUUm9--36" value="&lt;span style=&quot;font-size: 40px&quot;&gt;女性&lt;/span&gt;" style="shape=ellipse;fillColor=#eeeeee;strokeColor=#999999;gradientColor=#cccccc;html=1;align=left;spacingLeft=4;fontSize=17;fontColor=#666666;labelPosition=right;shadow=0;labelBackgroundColor=#FFFFFF;" vertex="1" parent="iQXZzTeZplkwyJJvV2N7-1">
                    <mxGeometry x="340" y="670" width="50" height="50" as="geometry"/>
                </mxCell>
                <mxCell id="Qg0whrGEm0efhjvUUm9--37" value="" style="strokeWidth=1;shadow=0;dashed=0;align=center;html=1;shape=mxgraph.mockup.forms.comboBox;strokeColor=#000000;fillColor=#007FFF;align=left;fillColor2=#aaddff;mainText=;fontColor=#666666;fontSize=17;spacingLeft=3;labelBackgroundColor=#FFFFFF;labelBorderColor=#000000;" vertex="1" parent="iQXZzTeZplkwyJJvV2N7-1">
                    <mxGeometry y="910" width="750" height="70" as="geometry"/>
                </mxCell>
                <mxCell id="Qg0whrGEm0efhjvUUm9--38" value="" style="strokeWidth=1;shadow=0;dashed=0;align=center;html=1;shape=mxgraph.mockup.forms.comboBox;strokeColor=#000000;fillColor=#007FFF;align=left;fillColor2=#aaddff;mainText=;fontColor=#666666;fontSize=17;spacingLeft=3;labelBackgroundColor=#FFFFFF;labelBorderColor=#000000;" vertex="1" parent="iQXZzTeZplkwyJJvV2N7-1">
                    <mxGeometry y="1040" width="750" height="70" as="geometry"/>
                </mxCell>
                <mxCell id="Qg0whrGEm0efhjvUUm9--39" value="" style="sketch=0;aspect=fixed;pointerEvents=1;shadow=0;dashed=0;html=1;strokeColor=none;labelPosition=center;verticalLabelPosition=bottom;verticalAlign=top;align=center;fillColor=#00188D;shape=mxgraph.mscae.enterprise.calendar;labelBackgroundColor=#FFFFFF;fontSize=40;fontColor=default;" vertex="1" parent="iQXZzTeZplkwyJJvV2N7-1">
                    <mxGeometry x="610" y="800" width="50" height="41" as="geometry"/>
                </mxCell>
                <mxCell id="Qg0whrGEm0efhjvUUm9--40" value="" style="rounded=0;whiteSpace=wrap;html=1;labelBackgroundColor=#FFFFFF;fontSize=35;fontColor=default;strokeColor=default;fillColor=default;align=left;verticalAlign=middle;" vertex="1" parent="iQXZzTeZplkwyJJvV2N7-1">
                    <mxGeometry x="10" y="785.5" width="580" height="70" as="geometry"/>
                </mxCell>
                <mxCell id="Qg0whrGEm0efhjvUUm9--41" style="edgeStyle=orthogonalEdgeStyle;rounded=0;orthogonalLoop=1;jettySize=auto;html=1;exitX=0.5;exitY=1;exitDx=0;exitDy=0;fontSize=50;fontColor=default;strokeColor=default;labelBackgroundColor=default;" edge="1" parent="iQXZzTeZplkwyJJvV2N7-1" source="Qg0whrGEm0efhjvUUm9--29" target="Qg0whrGEm0efhjvUUm9--29">
                    <mxGeometry relative="1" as="geometry"/>
                </mxCell>
                <mxCell id="Qg0whrGEm0efhjvUUm9--42" value="" style="rounded=0;whiteSpace=wrap;html=1;labelBackgroundColor=#FFFFFF;fontSize=35;fontColor=default;strokeColor=default;fillColor=default;align=left;verticalAlign=middle;" vertex="1" parent="iQXZzTeZplkwyJJvV2N7-1">
                    <mxGeometry x="-10" y="150" width="750" height="70" as="geometry"/>
                </mxCell>
                <mxCell id="Qg0whrGEm0efhjvUUm9--43" value="➀" style="rounded=0;whiteSpace=wrap;html=1;fontSize=53;" vertex="1" parent="iQXZzTeZplkwyJJvV2N7-1">
                    <mxGeometry x="-830" y="-380" width="120" height="120" as="geometry"/>
                </mxCell>
                <mxCell id="Qg0whrGEm0efhjvUUm9--44" value="" style="rounded=1;whiteSpace=wrap;html=1;fontSize=53;dashed=1;fillColor=none;" vertex="1" parent="iQXZzTeZplkwyJJvV2N7-1">
                    <mxGeometry x="-420" y="140" width="190" height="70" as="geometry"/>
                </mxCell>
                <mxCell id="Qg0whrGEm0efhjvUUm9--45" value="" style="endArrow=classic;html=1;rounded=0;fontSize=53;exitX=1;exitY=0.5;exitDx=0;exitDy=0;entryX=0;entryY=0.5;entryDx=0;entryDy=0;strokeWidth=2;" edge="1" parent="iQXZzTeZplkwyJJvV2N7-1" source="Qg0whrGEm0efhjvUUm9--43" target="Qg0whrGEm0efhjvUUm9--3">
                    <mxGeometry width="50" height="50" relative="1" as="geometry">
                        <mxPoint x="-230" y="-430" as="sourcePoint"/>
                        <mxPoint x="-50" y="-140" as="targetPoint"/>
                    </mxGeometry>
                </mxCell>
                <mxCell id="Qg0whrGEm0efhjvUUm9--46" value="➀" style="rounded=0;whiteSpace=wrap;html=1;fontSize=53;" vertex="1" parent="iQXZzTeZplkwyJJvV2N7-1">
                    <mxGeometry x="-820" y="600" width="120" height="120" as="geometry"/>
                </mxCell>
                <mxCell id="Qg0whrGEm0efhjvUUm9--47" value="➀" style="rounded=0;whiteSpace=wrap;html=1;fontSize=53;" vertex="1" parent="iQXZzTeZplkwyJJvV2N7-1">
                    <mxGeometry x="-820" y="420" width="120" height="120" as="geometry"/>
                </mxCell>
                <mxCell id="Qg0whrGEm0efhjvUUm9--48" value="➀" style="rounded=0;whiteSpace=wrap;html=1;fontSize=53;" vertex="1" parent="iQXZzTeZplkwyJJvV2N7-1">
                    <mxGeometry x="-820" y="210" width="120" height="120" as="geometry"/>
                </mxCell>
                <mxCell id="Qg0whrGEm0efhjvUUm9--49" value="➀" style="rounded=0;whiteSpace=wrap;html=1;fontSize=53;" vertex="1" parent="iQXZzTeZplkwyJJvV2N7-1">
                    <mxGeometry x="-827" y="-160" width="120" height="120" as="geometry"/>
                </mxCell>
                <mxCell id="Qg0whrGEm0efhjvUUm9--50" value="" style="endArrow=classic;html=1;rounded=0;fontSize=53;exitX=1;exitY=0.5;exitDx=0;exitDy=0;entryX=0;entryY=0.5;entryDx=0;entryDy=0;strokeWidth=2;" edge="1" parent="iQXZzTeZplkwyJJvV2N7-1" source="Qg0whrGEm0efhjvUUm9--49" target="Qg0whrGEm0efhjvUUm9--44">
                    <mxGeometry width="50" height="50" relative="1" as="geometry">
                        <mxPoint x="-640" y="-110.00000000000023" as="sourcePoint"/>
                        <mxPoint x="150" y="255" as="targetPoint"/>
                    </mxGeometry>
                </mxCell>
                <mxCell id="Qg0whrGEm0efhjvUUm9--51" value="" style="rounded=1;whiteSpace=wrap;html=1;fontSize=53;dashed=1;fillColor=none;" vertex="1" parent="iQXZzTeZplkwyJJvV2N7-1">
                    <mxGeometry x="-45" y="95" width="820" height="160" as="geometry"/>
                </mxCell>
                <mxCell id="Qg0whrGEm0efhjvUUm9--52" value="" style="endArrow=classic;html=1;rounded=0;fontSize=53;exitX=1;exitY=0.5;exitDx=0;exitDy=0;entryX=0;entryY=0.5;entryDx=0;entryDy=0;strokeWidth=2;" edge="1" parent="iQXZzTeZplkwyJJvV2N7-1" source="Qg0whrGEm0efhjvUUm9--48" target="Qg0whrGEm0efhjvUUm9--51">
                    <mxGeometry width="50" height="50" relative="1" as="geometry">
                        <mxPoint x="-690" y="20" as="sourcePoint"/>
                        <mxPoint x="-410" y="185" as="targetPoint"/>
                    </mxGeometry>
                </mxCell>
                <mxCell id="Qg0whrGEm0efhjvUUm9--53" value="" style="rounded=1;whiteSpace=wrap;html=1;fontSize=53;dashed=1;fillColor=none;" vertex="1" parent="iQXZzTeZplkwyJJvV2N7-1">
                    <mxGeometry x="-20" y="257" width="340" height="110" as="geometry"/>
                </mxCell>
                <mxCell id="Qg0whrGEm0efhjvUUm9--54" value="" style="rounded=1;whiteSpace=wrap;html=1;fontSize=53;dashed=1;fillColor=none;" vertex="1" parent="iQXZzTeZplkwyJJvV2N7-1">
                    <mxGeometry x="380" y="250" width="340" height="110" as="geometry"/>
                </mxCell>
                <mxCell id="Qg0whrGEm0efhjvUUm9--55" value="" style="rounded=1;whiteSpace=wrap;html=1;fontSize=53;dashed=1;fillColor=none;" vertex="1" parent="iQXZzTeZplkwyJJvV2N7-1">
                    <mxGeometry x="-20" y="386" width="340" height="110" as="geometry"/>
                </mxCell>
                <mxCell id="Qg0whrGEm0efhjvUUm9--56" value="" style="rounded=1;whiteSpace=wrap;html=1;fontSize=53;dashed=1;fillColor=none;" vertex="1" parent="iQXZzTeZplkwyJJvV2N7-1">
                    <mxGeometry x="380" y="386" width="340" height="110" as="geometry"/>
                </mxCell>
                <mxCell id="Qg0whrGEm0efhjvUUm9--57" value="" style="rounded=1;whiteSpace=wrap;html=1;fontSize=53;dashed=1;fillColor=none;" vertex="1" parent="iQXZzTeZplkwyJJvV2N7-1">
                    <mxGeometry x="-10" y="500" width="810" height="130" as="geometry"/>
                </mxCell>
                <mxCell id="Qg0whrGEm0efhjvUUm9--58" value="" style="rounded=1;whiteSpace=wrap;html=1;fontSize=53;dashed=1;fillColor=none;" vertex="1" parent="iQXZzTeZplkwyJJvV2N7-1">
                    <mxGeometry x="100" y="650" width="175" height="90" as="geometry"/>
                </mxCell>
                <mxCell id="Qg0whrGEm0efhjvUUm9--59" value="" style="rounded=1;whiteSpace=wrap;html=1;fontSize=53;dashed=1;fillColor=none;" vertex="1" parent="iQXZzTeZplkwyJJvV2N7-1">
                    <mxGeometry x="-20" y="750" width="750" height="120" as="geometry"/>
                </mxCell>
                <mxCell id="Qg0whrGEm0efhjvUUm9--60" value="" style="rounded=1;whiteSpace=wrap;html=1;fontSize=53;dashed=1;fillColor=none;" vertex="1" parent="iQXZzTeZplkwyJJvV2N7-1">
                    <mxGeometry x="-20" y="885" width="800" height="120" as="geometry"/>
                </mxCell>
                <mxCell id="Qg0whrGEm0efhjvUUm9--61" value="" style="rounded=1;whiteSpace=wrap;html=1;fontSize=53;dashed=1;fillColor=none;" vertex="1" parent="iQXZzTeZplkwyJJvV2N7-1">
                    <mxGeometry x="-20" y="1015" width="800" height="120" as="geometry"/>
                </mxCell>
                <mxCell id="Qg0whrGEm0efhjvUUm9--62" value="" style="rounded=1;whiteSpace=wrap;html=1;fontSize=53;dashed=1;fillColor=none;" vertex="1" parent="iQXZzTeZplkwyJJvV2N7-1">
                    <mxGeometry x="110" y="1169" width="250" height="111" as="geometry"/>
                </mxCell>
                <mxCell id="Qg0whrGEm0efhjvUUm9--63" value="➀" style="rounded=0;whiteSpace=wrap;html=1;fontSize=53;" vertex="1" parent="iQXZzTeZplkwyJJvV2N7-1">
                    <mxGeometry x="-820" y="780" width="120" height="120" as="geometry"/>
                </mxCell>
                <mxCell id="Qg0whrGEm0efhjvUUm9--64" value="➀" style="rounded=0;whiteSpace=wrap;html=1;fontSize=53;" vertex="1" parent="iQXZzTeZplkwyJJvV2N7-1">
                    <mxGeometry x="-820" y="970" width="120" height="120" as="geometry"/>
                </mxCell>
                <mxCell id="Qg0whrGEm0efhjvUUm9--65" value="➀" style="rounded=0;whiteSpace=wrap;html=1;fontSize=53;" vertex="1" parent="iQXZzTeZplkwyJJvV2N7-1">
                    <mxGeometry x="-820" y="1190" width="120" height="120" as="geometry"/>
                </mxCell>
                <mxCell id="Qg0whrGEm0efhjvUUm9--66" value="➀" style="rounded=0;whiteSpace=wrap;html=1;fontSize=53;" vertex="1" parent="iQXZzTeZplkwyJJvV2N7-1">
                    <mxGeometry x="-820" y="1430" width="120" height="120" as="geometry"/>
                </mxCell>
                <mxCell id="Qg0whrGEm0efhjvUUm9--67" value="➀" style="rounded=0;whiteSpace=wrap;html=1;fontSize=53;" vertex="1" parent="iQXZzTeZplkwyJJvV2N7-1">
                    <mxGeometry x="-580" y="1450" width="120" height="120" as="geometry"/>
                </mxCell>
                <mxCell id="Qg0whrGEm0efhjvUUm9--68" value="➀" style="rounded=0;whiteSpace=wrap;html=1;fontSize=53;" vertex="1" parent="iQXZzTeZplkwyJJvV2N7-1">
                    <mxGeometry x="-370" y="1440" width="120" height="120" as="geometry"/>
                </mxCell>
                <mxCell id="Qg0whrGEm0efhjvUUm9--69" value="➀" style="rounded=0;whiteSpace=wrap;html=1;fontSize=53;" vertex="1" parent="iQXZzTeZplkwyJJvV2N7-1">
                    <mxGeometry x="-130" y="1440" width="120" height="120" as="geometry"/>
                </mxCell>
                <mxCell id="Qg0whrGEm0efhjvUUm9--70" value="" style="endArrow=classic;html=1;rounded=0;fontSize=53;exitX=1;exitY=0.5;exitDx=0;exitDy=0;entryX=0;entryY=0.5;entryDx=0;entryDy=0;strokeWidth=2;" edge="1" parent="iQXZzTeZplkwyJJvV2N7-1" source="Qg0whrGEm0efhjvUUm9--47" target="Qg0whrGEm0efhjvUUm9--53">
                    <mxGeometry width="50" height="50" relative="1" as="geometry">
                        <mxPoint x="-690" y="280" as="sourcePoint"/>
                        <mxPoint x="-35" y="185" as="targetPoint"/>
                    </mxGeometry>
                </mxCell>
                <mxCell id="Qg0whrGEm0efhjvUUm9--71" value="" style="endArrow=classic;html=1;rounded=0;fontSize=53;exitX=1;exitY=0.5;exitDx=0;exitDy=0;entryX=0;entryY=0.5;entryDx=0;entryDy=0;strokeWidth=2;" edge="1" parent="iQXZzTeZplkwyJJvV2N7-1" source="Qg0whrGEm0efhjvUUm9--46" target="Qg0whrGEm0efhjvUUm9--54">
                    <mxGeometry width="50" height="50" relative="1" as="geometry">
                        <mxPoint x="-690" y="490" as="sourcePoint"/>
                        <mxPoint x="-10" y="322" as="targetPoint"/>
                    </mxGeometry>
                </mxCell>
                <mxCell id="Qg0whrGEm0efhjvUUm9--72" value="" style="endArrow=classic;html=1;rounded=0;fontSize=53;exitX=1;exitY=0.5;exitDx=0;exitDy=0;entryX=0;entryY=0.5;entryDx=0;entryDy=0;strokeWidth=2;" edge="1" parent="iQXZzTeZplkwyJJvV2N7-1" source="Qg0whrGEm0efhjvUUm9--63" target="Qg0whrGEm0efhjvUUm9--55">
                    <mxGeometry width="50" height="50" relative="1" as="geometry">
                        <mxPoint x="-690" y="670" as="sourcePoint"/>
                        <mxPoint x="390" y="315" as="targetPoint"/>
                    </mxGeometry>
                </mxCell>
                <mxCell id="Qg0whrGEm0efhjvUUm9--73" value="" style="endArrow=classic;html=1;rounded=0;fontSize=53;exitX=1;exitY=0.5;exitDx=0;exitDy=0;entryX=0;entryY=0.5;entryDx=0;entryDy=0;strokeWidth=2;" edge="1" parent="iQXZzTeZplkwyJJvV2N7-1" source="Qg0whrGEm0efhjvUUm9--64" target="Qg0whrGEm0efhjvUUm9--56">
                    <mxGeometry width="50" height="50" relative="1" as="geometry">
                        <mxPoint x="-690" y="850" as="sourcePoint"/>
                        <mxPoint x="-10" y="451" as="targetPoint"/>
                    </mxGeometry>
                </mxCell>
                <mxCell id="Qg0whrGEm0efhjvUUm9--74" value="" style="endArrow=classic;html=1;rounded=0;fontSize=53;exitX=1;exitY=0.5;exitDx=0;exitDy=0;entryX=0;entryY=0.5;entryDx=0;entryDy=0;strokeWidth=2;" edge="1" parent="iQXZzTeZplkwyJJvV2N7-1" source="Qg0whrGEm0efhjvUUm9--65" target="Qg0whrGEm0efhjvUUm9--57">
                    <mxGeometry width="50" height="50" relative="1" as="geometry">
                        <mxPoint x="-690" y="1040" as="sourcePoint"/>
                        <mxPoint x="390" y="451" as="targetPoint"/>
                    </mxGeometry>
                </mxCell>
                <mxCell id="Qg0whrGEm0efhjvUUm9--75" style="edgeStyle=orthogonalEdgeStyle;rounded=0;orthogonalLoop=1;jettySize=auto;html=1;fontSize=53;strokeWidth=2;" edge="1" parent="iQXZzTeZplkwyJJvV2N7-1" source="Qg0whrGEm0efhjvUUm9--57" target="Qg0whrGEm0efhjvUUm9--57">
                    <mxGeometry relative="1" as="geometry"/>
                </mxCell>
                <mxCell id="Qg0whrGEm0efhjvUUm9--76" value="" style="endArrow=classic;html=1;rounded=0;fontSize=53;exitX=1;exitY=0.5;exitDx=0;exitDy=0;entryX=0;entryY=0.5;entryDx=0;entryDy=0;strokeWidth=2;" edge="1" parent="iQXZzTeZplkwyJJvV2N7-1" source="Qg0whrGEm0efhjvUUm9--66" target="Qg0whrGEm0efhjvUUm9--58">
                    <mxGeometry width="50" height="50" relative="1" as="geometry">
                        <mxPoint x="-690" y="1260" as="sourcePoint"/>
                        <mxPoint y="575" as="targetPoint"/>
                    </mxGeometry>
                </mxCell>
                <mxCell id="Qg0whrGEm0efhjvUUm9--77" value="" style="endArrow=classic;html=1;rounded=0;fontSize=53;exitX=0.5;exitY=0;exitDx=0;exitDy=0;strokeWidth=2;" edge="1" parent="iQXZzTeZplkwyJJvV2N7-1" source="Qg0whrGEm0efhjvUUm9--67">
                    <mxGeometry width="50" height="50" relative="1" as="geometry">
                        <mxPoint x="-690" y="1500" as="sourcePoint"/>
                        <mxPoint x="-20.00000000000091" y="820" as="targetPoint"/>
                    </mxGeometry>
                </mxCell>
                <mxCell id="Qg0whrGEm0efhjvUUm9--78" value="" style="endArrow=classic;html=1;rounded=0;fontSize=53;exitX=0.5;exitY=0;exitDx=0;exitDy=0;strokeWidth=2;entryX=0;entryY=0.5;entryDx=0;entryDy=0;" edge="1" parent="iQXZzTeZplkwyJJvV2N7-1" source="Qg0whrGEm0efhjvUUm9--68" target="Qg0whrGEm0efhjvUUm9--60">
                    <mxGeometry width="50" height="50" relative="1" as="geometry">
                        <mxPoint x="-510" y="1460" as="sourcePoint"/>
                        <mxPoint x="-10" y="830" as="targetPoint"/>
                    </mxGeometry>
                </mxCell>
                <mxCell id="Qg0whrGEm0efhjvUUm9--79" value="" style="endArrow=classic;html=1;rounded=0;fontSize=53;exitX=0.5;exitY=0;exitDx=0;exitDy=0;strokeWidth=2;entryX=0;entryY=0.5;entryDx=0;entryDy=0;" edge="1" parent="iQXZzTeZplkwyJJvV2N7-1" source="Qg0whrGEm0efhjvUUm9--69" target="Qg0whrGEm0efhjvUUm9--61">
                    <mxGeometry width="50" height="50" relative="1" as="geometry">
                        <mxPoint x="-300" y="1450" as="sourcePoint"/>
                        <mxPoint x="-10" y="955" as="targetPoint"/>
                    </mxGeometry>
                </mxCell>
                <mxCell id="Qg0whrGEm0efhjvUUm9--80" value="➀" style="rounded=0;whiteSpace=wrap;html=1;fontSize=53;" vertex="1" parent="iQXZzTeZplkwyJJvV2N7-1">
                    <mxGeometry x="100" y="1450" width="120" height="120" as="geometry"/>
                </mxCell>
                <mxCell id="Qg0whrGEm0efhjvUUm9--81" value="" style="endArrow=classic;html=1;rounded=0;fontSize=53;exitX=0.5;exitY=0;exitDx=0;exitDy=0;strokeWidth=2;entryX=0.5;entryY=1;entryDx=0;entryDy=0;" edge="1" parent="iQXZzTeZplkwyJJvV2N7-1" source="Qg0whrGEm0efhjvUUm9--80" target="Qg0whrGEm0efhjvUUm9--62">
                    <mxGeometry width="50" height="50" relative="1" as="geometry">
                        <mxPoint x="490" y="1765" as="sourcePoint"/>
                        <mxPoint x="540" y="1400" as="targetPoint"/>
                    </mxGeometry>
                </mxCell>
                <mxCell id="Qg0whrGEm0efhjvUUm9--82" value="➀" style="rounded=0;whiteSpace=wrap;html=1;fontSize=53;" vertex="1" parent="iQXZzTeZplkwyJJvV2N7-1">
                    <mxGeometry x="-830" y="30" width="120" height="120" as="geometry"/>
                </mxCell>
                <mxCell id="Qg0whrGEm0efhjvUUm9--83" value="" style="rounded=1;whiteSpace=wrap;html=1;fontSize=53;dashed=1;fillColor=none;" vertex="1" parent="iQXZzTeZplkwyJJvV2N7-1">
                    <mxGeometry x="-460" y="70" width="1330" height="1100" as="geometry"/>
                </mxCell>
                <mxCell id="Qg0whrGEm0efhjvUUm9--84" value="" style="endArrow=classic;html=1;rounded=0;fontSize=53;exitX=1;exitY=0.5;exitDx=0;exitDy=0;entryX=0;entryY=0.5;entryDx=0;entryDy=0;strokeWidth=2;" edge="1" parent="iQXZzTeZplkwyJJvV2N7-1" source="Qg0whrGEm0efhjvUUm9--82" target="Qg0whrGEm0efhjvUUm9--83">
                    <mxGeometry width="50" height="50" relative="1" as="geometry">
                        <mxPoint x="-697" y="-90" as="sourcePoint"/>
                        <mxPoint x="-409.9999999999991" y="185" as="targetPoint"/>
                    </mxGeometry>
                </mxCell>
                <mxCell id="Qg0whrGEm0efhjvUUm9--0" value="名称未設定レイヤ" parent="iQXZzTeZplkwyJJvV2N7-0"/>
                <mxCell id="Qg0whrGEm0efhjvUUm9--1" value="名称未設定レイヤ" parent="iQXZzTeZplkwyJJvV2N7-0"/>
            </root>
        </mxGraphModel>
    </diagram>
    <diagram id="R6QMF_Pb3Kf62Q887VUA" name="S01-03 従業員詳細">
        <mxGraphModel dx="814" dy="339" grid="1" gridSize="10" guides="1" tooltips="1" connect="1" arrows="1" fold="1" page="1" pageScale="1" pageWidth="827" pageHeight="1169" math="0" shadow="0">
            <root>
                <mxCell id="cEOJRVkmyvD1ovo1MWaK-0"/>
                <mxCell id="cEOJRVkmyvD1ovo1MWaK-1" parent="cEOJRVkmyvD1ovo1MWaK-0"/>
            </root>
        </mxGraphModel>
    </diagram>
    <diagram id="-5XlGvyMNI4YQo4kTnu4" name="S01-04 従業員編集">
        <mxGraphModel dx="814" dy="339" grid="1" gridSize="10" guides="1" tooltips="1" connect="1" arrows="1" fold="1" page="0" pageScale="1" pageWidth="827" pageHeight="1169" math="0" shadow="0">
            <root>
                <mxCell id="jRSMvbaGAu0SlTpMGheo-0"/>
                <mxCell id="jRSMvbaGAu0SlTpMGheo-1" style="locked=1;" parent="jRSMvbaGAu0SlTpMGheo-0"/>
                <mxCell id="caIzG-m1jP1CFUBGOVnT-1" value="" style="rounded=0;whiteSpace=wrap;html=1;" parent="jRSMvbaGAu0SlTpMGheo-1" vertex="1">
                    <mxGeometry x="15" y="36.5" width="680" height="460" as="geometry"/>
                </mxCell>
                <mxCell id="caIzG-m1jP1CFUBGOVnT-2" value="従業員情報編集" style="text;html=1;strokeColor=none;fillColor=none;align=center;verticalAlign=middle;whiteSpace=wrap;rounded=0;fontColor=default;fontStyle=1;fontSize=20;" parent="jRSMvbaGAu0SlTpMGheo-1" vertex="1">
                    <mxGeometry x="282.5" y="50" width="145" height="50" as="geometry"/>
                </mxCell>
                <mxCell id="caIzG-m1jP1CFUBGOVnT-3" value="従業員ID" style="text;html=1;strokeColor=none;fillColor=none;align=center;verticalAlign=middle;whiteSpace=wrap;rounded=0;" parent="jRSMvbaGAu0SlTpMGheo-1" vertex="1">
                    <mxGeometry x="120" y="123" width="60" height="30" as="geometry"/>
                </mxCell>
                <mxCell id="caIzG-m1jP1CFUBGOVnT-4" value="氏名" style="text;html=1;strokeColor=none;fillColor=none;align=center;verticalAlign=middle;whiteSpace=wrap;rounded=0;" parent="jRSMvbaGAu0SlTpMGheo-1" vertex="1">
                    <mxGeometry x="120" y="161.5" width="60" height="30" as="geometry"/>
                </mxCell>
                <mxCell id="caIzG-m1jP1CFUBGOVnT-5" value="" style="rounded=1;arcSize=9;fillColor=#F7F8F9;align=left;spacingLeft=5;strokeColor=#DEE1E6;html=1;strokeWidth=2;fontSize=12" parent="jRSMvbaGAu0SlTpMGheo-1" vertex="1">
                    <mxGeometry x="220" y="161.5" width="290" height="33" as="geometry"/>
                </mxCell>
                <mxCell id="caIzG-m1jP1CFUBGOVnT-6" value="氏名（カナ）" style="text;html=1;strokeColor=none;fillColor=none;align=center;verticalAlign=middle;whiteSpace=wrap;rounded=0;" parent="jRSMvbaGAu0SlTpMGheo-1" vertex="1">
                    <mxGeometry x="100" y="205" width="100" height="30" as="geometry"/>
                </mxCell>
                <mxCell id="caIzG-m1jP1CFUBGOVnT-7" value="" style="rounded=1;arcSize=9;fillColor=#F7F8F9;align=left;spacingLeft=5;strokeColor=#DEE1E6;html=1;strokeWidth=2;fontSize=12" parent="jRSMvbaGAu0SlTpMGheo-1" vertex="1">
                    <mxGeometry x="220" y="205" width="290" height="33" as="geometry"/>
                </mxCell>
                <mxCell id="caIzG-m1jP1CFUBGOVnT-8" value="電話番号" style="text;html=1;strokeColor=none;fillColor=none;align=center;verticalAlign=middle;whiteSpace=wrap;rounded=0;" parent="jRSMvbaGAu0SlTpMGheo-1" vertex="1">
                    <mxGeometry x="120" y="253" width="60" height="30" as="geometry"/>
                </mxCell>
                <mxCell id="caIzG-m1jP1CFUBGOVnT-9" value="" style="rounded=1;arcSize=9;fillColor=#F7F8F9;align=left;spacingLeft=5;strokeColor=#DEE1E6;html=1;strokeWidth=2;fontSize=12" parent="jRSMvbaGAu0SlTpMGheo-1" vertex="1">
                    <mxGeometry x="220" y="250" width="290" height="33" as="geometry"/>
                </mxCell>
                <mxCell id="caIzG-m1jP1CFUBGOVnT-10" value="性別" style="text;html=1;strokeColor=none;fillColor=none;align=center;verticalAlign=middle;whiteSpace=wrap;rounded=0;" parent="jRSMvbaGAu0SlTpMGheo-1" vertex="1">
                    <mxGeometry x="120" y="293" width="60" height="30" as="geometry"/>
                </mxCell>
                <mxCell id="caIzG-m1jP1CFUBGOVnT-11" value="男性" style="html=1;shadow=0;dashed=0;shape=mxgraph.bootstrap.radioButton2;labelPosition=right;verticalLabelPosition=middle;align=left;verticalAlign=middle;gradientColor=#DEDEDE;fillColor=#EDEDED;checked=1;spacing=5;checkedFill=#0085FC;checkedStroke=#ffffff;sketch=0;" parent="jRSMvbaGAu0SlTpMGheo-1" vertex="1">
                    <mxGeometry x="220" y="300" width="10" height="10" as="geometry"/>
                </mxCell>
                <mxCell id="caIzG-m1jP1CFUBGOVnT-12" value="女性" style="html=1;shadow=0;dashed=0;shape=mxgraph.bootstrap.radioButton2;labelPosition=right;verticalLabelPosition=middle;align=left;verticalAlign=middle;gradientColor=#DEDEDE;fillColor=#EDEDED;checked=0;spacing=5;checkedFill=#0085FC;checkedStroke=#ffffff;sketch=0;" parent="jRSMvbaGAu0SlTpMGheo-1" vertex="1">
                    <mxGeometry x="385" y="300" width="10" height="10" as="geometry"/>
                </mxCell>
                <mxCell id="caIzG-m1jP1CFUBGOVnT-13" value="生年月日" style="text;html=1;strokeColor=none;fillColor=none;align=center;verticalAlign=middle;whiteSpace=wrap;rounded=0;" parent="jRSMvbaGAu0SlTpMGheo-1" vertex="1">
                    <mxGeometry x="120" y="329" width="60" height="30" as="geometry"/>
                </mxCell>
                <mxCell id="caIzG-m1jP1CFUBGOVnT-14" value="" style="rounded=1;arcSize=9;fillColor=#F7F8F9;align=left;spacingLeft=5;strokeColor=#DEE1E6;html=1;strokeWidth=2;fontSize=12" parent="jRSMvbaGAu0SlTpMGheo-1" vertex="1">
                    <mxGeometry x="220" y="326" width="100" height="33" as="geometry"/>
                </mxCell>
                <mxCell id="caIzG-m1jP1CFUBGOVnT-15" value="" style="sketch=0;pointerEvents=1;shadow=0;dashed=0;html=1;strokeColor=none;fillColor=#505050;labelPosition=center;verticalLabelPosition=bottom;verticalAlign=top;outlineConnect=0;align=center;shape=mxgraph.office.concepts.calendar;" parent="jRSMvbaGAu0SlTpMGheo-1" vertex="1">
                    <mxGeometry x="330" y="330" width="30" height="29" as="geometry"/>
                </mxCell>
                <mxCell id="caIzG-m1jP1CFUBGOVnT-16" value="雇用店舗" style="text;html=1;strokeColor=none;fillColor=none;align=center;verticalAlign=middle;whiteSpace=wrap;rounded=0;" parent="jRSMvbaGAu0SlTpMGheo-1" vertex="1">
                    <mxGeometry x="120" y="370" width="60" height="30" as="geometry"/>
                </mxCell>
                <mxCell id="caIzG-m1jP1CFUBGOVnT-17" value="雇用形態" style="text;html=1;strokeColor=none;fillColor=none;align=center;verticalAlign=middle;whiteSpace=wrap;rounded=0;" parent="jRSMvbaGAu0SlTpMGheo-1" vertex="1">
                    <mxGeometry x="120" y="410" width="60" height="30" as="geometry"/>
                </mxCell>
                <mxCell id="caIzG-m1jP1CFUBGOVnT-18" value="" style="rounded=1;arcSize=9;fillColor=#ffffff;strokeColor=#4C9AFF;html=1;strokeWidth=2;spacingLeft=30;fontColor=#000000;align=left" parent="jRSMvbaGAu0SlTpMGheo-1" vertex="1">
                    <mxGeometry x="220" y="370" width="270" height="33" as="geometry"/>
                </mxCell>
                <mxCell id="caIzG-m1jP1CFUBGOVnT-19" value="" style="shape=step;whiteSpace=wrap;html=1;rounded=0;strokeColor=none;strokeWidth=2;fillColor=#0A1E43;gradientColor=none;fontFamily=Verdana;fontSize=14;fontColor=#000000;align=left;direction=south;size=0.65;" parent="caIzG-m1jP1CFUBGOVnT-18" vertex="1">
                    <mxGeometry x="1" y="0.5" width="10" height="7" relative="1" as="geometry">
                        <mxPoint x="-24" y="-3" as="offset"/>
                    </mxGeometry>
                </mxCell>
                <mxCell id="caIzG-m1jP1CFUBGOVnT-20" value="" style="rounded=1;arcSize=9;fillColor=#ffffff;strokeColor=#4C9AFF;html=1;strokeWidth=2;spacingLeft=30;fontColor=#000000;align=left" parent="jRSMvbaGAu0SlTpMGheo-1" vertex="1">
                    <mxGeometry x="220" y="410" width="270" height="33" as="geometry"/>
                </mxCell>
                <mxCell id="caIzG-m1jP1CFUBGOVnT-21" value="" style="shape=step;whiteSpace=wrap;html=1;rounded=0;strokeColor=none;strokeWidth=2;fillColor=#0A1E43;gradientColor=none;fontFamily=Verdana;fontSize=14;fontColor=#000000;align=left;direction=south;size=0.65;" parent="caIzG-m1jP1CFUBGOVnT-20" vertex="1">
                    <mxGeometry x="1" y="0.5" width="10" height="7" relative="1" as="geometry">
                        <mxPoint x="-24" y="-3" as="offset"/>
                    </mxGeometry>
                </mxCell>
                <mxCell id="caIzG-m1jP1CFUBGOVnT-22" value="&lt;span style=&quot;font-size: 27px&quot;&gt;&lt;span style=&quot;font-size: 19px&quot;&gt;更新&lt;/span&gt;&lt;/span&gt;" style="rounded=1;whiteSpace=wrap;html=1;align=center;labelBackgroundColor=none;fillColor=#d5e8d4;strokeColor=#82b366;" parent="jRSMvbaGAu0SlTpMGheo-1" vertex="1">
                    <mxGeometry x="220" y="454" width="130" height="34" as="geometry"/>
                </mxCell>
                <mxCell id="caIzG-m1jP1CFUBGOVnT-23" value="&lt;span style=&quot;font-size: 19px&quot;&gt;削除&lt;/span&gt;" style="rounded=1;whiteSpace=wrap;html=1;align=center;labelBackgroundColor=none;fillColor=#d5e8d4;strokeColor=#82b366;" parent="jRSMvbaGAu0SlTpMGheo-1" vertex="1">
                    <mxGeometry x="360" y="454" width="130" height="34" as="geometry"/>
                </mxCell>
                <mxCell id="caIzG-m1jP1CFUBGOVnT-0" value="名称未設定レイヤ" parent="jRSMvbaGAu0SlTpMGheo-0"/>
                <mxCell id="b3KyxXW6OtHEHXa37fTk-0" value="名称未設定レイヤ" parent="jRSMvbaGAu0SlTpMGheo-0"/>
            </root>
        </mxGraphModel>
    </diagram>
    <diagram id="Q6D3abXERs3BGHWYDyFU" name="S01-05 従業員登録完了">
        <mxGraphModel dx="814" dy="339" grid="1" gridSize="10" guides="1" tooltips="1" connect="1" arrows="1" fold="1" page="1" pageScale="1" pageWidth="827" pageHeight="1169" math="0" shadow="0">
            <root>
                <mxCell id="XR2JbObqEv2TeyNu8etc-0"/>
                <mxCell id="XR2JbObqEv2TeyNu8etc-1" parent="XR2JbObqEv2TeyNu8etc-0"/>
            </root>
        </mxGraphModel>
    </diagram>
</mxfile>